<svg width="120" height="120" viewBox="0 0 120 120" fill="none" xmlns="http://www.w3.org/2000/svg">
<g id="https://lottiefiles.com/629-empty-box" clip-path="url(#clip0_125_1423)">
<g id="Clip path group">
<mask id="mask0_125_1423" style="mask-type:luminance" maskUnits="userSpaceOnUse" x="0" y="0" width="120" height="120">
<g id="__lottie_element_550">
<path id="Vector" d="M120 0H0V120H120V0Z" fill="white"/>
</g>
</mask>
<g mask="url(#mask0_125_1423)">
<g id="Group">
<g id="Group_2">
<g id="Group_3">
<g id="Group_4">
<path id="Vector_2" d="M27.8584 59.1592V94.6412L60.0004 107.501L92.1454 94.6412V59.1592H27.8584Z" fill="#CCD1D9"/>
</g>
<g id="Group_5">
<path id="Vector_3" d="M60 107.501L92.144 94.6422V59.1592H60V107.501Z" fill="#E6E9EC"/>
</g>
<g id="Group_6">
<path id="Vector_4" d="M72.856 32.4993L60 39.1433L47.143 32.4993L15 49.1073L27.856 55.7493L15 62.3933L47.143 78.9973L60 72.3573L72.856 78.9973L105 62.3933L92.143 55.7493L105 49.1073L72.856 32.4993Z" fill="#F4F4F4"/>
</g>
<g id="Group_7">
<path id="Vector_5" d="M60.0004 39.1431L27.8584 55.7481L60.0004 72.3571L92.1454 55.7481L60.0004 39.1431Z" fill="#CCD1D9"/>
</g>
</g>
</g>
<g id="Group_8">
<g id="Group_9">
<path id="Vector_6" d="M59.7358 61.6411C55.0608 57.513 46.1628 47.694 60.0728 42.421C72.8888 37.563 76.9138 38.342 81.4588 34.608C86.9248 30.115 85.0728 18.522 72.9698 13.946" stroke="#9F9F9F" stroke-width="0.908333" stroke-linecap="round" stroke-linejoin="round" stroke-dasharray="1.84 1.84"/>
</g>
</g>
<g id="Group_10">
<g id="Group_11">
<g id="Group_12">
<path id="Vector_7" d="M68.9724 8.41821C70.9684 8.41821 72.5864 10.0362 72.5864 12.0322C72.5864 14.0282 70.9684 15.6462 68.9724 15.6462C66.9764 15.6462 65.3584 14.0282 65.3584 12.0322C65.3584 10.0362 66.9764 8.41821 68.9724 8.41821Z" fill="white"/>
<path id="Vector_8" d="M68.9724 8.41821C70.9684 8.41821 72.5864 10.0362 72.5864 12.0322C72.5864 14.0282 70.9684 15.6462 68.9724 15.6462C66.9764 15.6462 65.3584 14.0282 65.3584 12.0322C65.3584 10.0362 66.9764 8.41821 68.9724 8.41821Z" stroke="#868686" stroke-width="0.635833" stroke-miterlimit="10"/>
</g>
<g id="Group_13">
<path id="Vector_9" d="M75.157 8.51221C76.578 8.51221 77.73 9.66421 77.73 11.0862C77.73 12.5082 76.578 13.6602 75.157 13.6602C73.735 13.6602 72.582 12.5082 72.582 11.0862C72.582 9.66421 73.735 8.51221 75.157 8.51221Z" fill="white"/>
<path id="Vector_10" d="M75.157 8.51221C76.578 8.51221 77.73 9.66421 77.73 11.0862C77.73 12.5082 76.578 13.6602 75.157 13.6602C73.735 13.6602 72.582 12.5082 72.582 11.0862C72.582 9.66421 73.735 8.51221 75.157 8.51221Z" stroke="#868686" stroke-width="0.635833" stroke-miterlimit="10"/>
</g>
<g id="Group_14">
<path id="Vector_11" d="M73.4147 12.8232C74.4097 12.8232 75.2167 13.6292 75.2167 14.6232C75.2167 15.6172 74.4097 16.4252 73.4147 16.4252C72.4207 16.4252 71.6147 15.6172 71.6147 14.6232C71.6147 13.6292 72.4207 12.8232 73.4147 12.8232Z" fill="#868686"/>
</g>
</g>
</g>
</g>
</g>
</g>
</g>
<defs>
<clipPath id="clip0_125_1423">
<rect width="120" height="120" fill="white"/>
</clipPath>
</defs>
</svg>
