<svg width="100" height="30" viewBox="0 0 100 30" fill="none" xmlns="http://www.w3.org/2000/svg">
<g id="wordmark">
<path id="petma logo" fill-rule="evenodd" clip-rule="evenodd" d="M43.5173 19.1075C43.5173 22.7192 45.4148 24.525 49.2098 24.525H51.7673C51.9689 24.525 52.1339 24.4608 52.2623 24.3325C52.3906 24.1858 52.4548 24.0208 52.4548 23.8375V21.445C52.4548 21.2433 52.3906 21.0783 52.2623 20.95C52.1339 20.8217 51.9689 20.7575 51.7673 20.7575H49.6498C48.6048 20.7575 48.0823 20.0792 48.0823 18.7225V13.8275H51.5198C51.7214 13.8275 51.8864 13.7633 52.0148 13.635C52.1614 13.5067 52.2348 13.3417 52.2348 13.14V10.9125C52.2348 10.7108 52.1614 10.5458 52.0148 10.4175C51.8864 10.2892 51.7214 10.225 51.5198 10.225H48.0823V5.6875C48.0823 5.48583 48.0181 5.32083 47.8898 5.1925C47.7614 5.06417 47.5964 5 47.3948 5H44.2048C44.0214 5 43.8564 5.06417 43.7098 5.1925C43.5814 5.32083 43.5173 5.48583 43.5173 5.6875V10.225H41.3723C41.1706 10.225 40.9964 10.2892 40.8498 10.4175C40.7214 10.5458 40.6573 10.7108 40.6573 10.9125V13.14C40.6573 13.3417 40.7214 13.5067 40.8498 13.635C40.9964 13.7633 41.1706 13.8275 41.3723 13.8275H43.5173V19.1075ZM10.6875 24.525C10.5042 24.525 10.3392 24.4608 10.1925 24.3325C10.0642 24.1858 10 24.0208 10 23.8375V5.9625C10 5.76083 10.0642 5.59583 10.1925 5.4675C10.3392 5.33917 10.5042 5.275 10.6875 5.275H18.3875C20.7342 5.275 22.5767 5.81583 23.915 6.8975C25.2717 7.97917 25.95 9.55583 25.95 11.6275C25.95 13.6808 25.2808 15.23 23.9425 16.275C22.6042 17.3017 20.7525 17.815 18.3875 17.815H15.115V23.8375C15.115 24.0392 15.0417 24.2042 14.895 24.3325C14.7667 24.4608 14.6017 24.525 14.4 24.525H10.6875ZM33.4704 24.8C31.2704 24.8 29.5379 24.2042 28.2729 23.0125C27.0079 21.8208 26.3479 20.0883 26.2929 17.815V16.8525C26.3662 14.6892 27.0354 13.0025 28.3004 11.7925C29.5837 10.5642 31.2979 9.95 33.4429 9.95C35.0012 9.95 36.312 10.2708 37.3754 10.9125C38.457 11.5358 39.2637 12.3975 39.7954 13.4975C40.3454 14.5975 40.6203 15.8625 40.6203 17.2925V17.9525C40.6203 18.1358 40.5562 18.3008 40.4279 18.4475C40.2995 18.5758 40.1345 18.64 39.9329 18.64H31.1329V18.8325C31.1695 19.6942 31.3804 20.3908 31.7654 20.9225C32.1504 21.4542 32.7095 21.72 33.4429 21.72C33.9012 21.72 34.277 21.6283 34.5704 21.445C34.8637 21.2433 35.1295 21.005 35.3679 20.73C35.5329 20.5283 35.6612 20.4092 35.7529 20.3725C35.8629 20.3175 36.0279 20.29 36.2479 20.29H39.6579C39.8229 20.29 39.9604 20.345 40.0704 20.455C40.1987 20.5467 40.2629 20.675 40.2629 20.84C40.2629 21.3167 39.9879 21.8667 39.4379 22.49C38.9062 23.1133 38.127 23.6542 37.1004 24.1125C36.0737 24.5708 34.8637 24.8 33.4704 24.8ZM35.7804 15.9175V15.8625C35.7804 14.9642 35.5695 14.2583 35.1479 13.745C34.7445 13.2133 34.1762 12.9475 33.4429 12.9475C32.7279 12.9475 32.1595 13.2133 31.7379 13.745C31.3345 14.2583 31.1329 14.9642 31.1329 15.8625V15.9175H35.7804ZM54.1692 24.525C53.9675 24.525 53.8025 24.4608 53.6742 24.3325C53.5458 24.2042 53.4817 24.0392 53.4817 23.8375V10.9125C53.4817 10.7108 53.5458 10.5458 53.6742 10.4175C53.8025 10.2892 53.9675 10.225 54.1692 10.225H57.1667C57.3683 10.225 57.5333 10.2892 57.6617 10.4175C57.79 10.5458 57.8542 10.7108 57.8542 10.9125V11.8475C58.2758 11.2975 58.835 10.8483 59.5317 10.5C60.2467 10.1333 61.0442 9.95 61.9242 9.95C63.9408 9.95 65.3342 10.7383 66.1042 12.315C66.5442 11.6183 67.1583 11.05 67.9467 10.61C68.735 10.17 69.5783 9.95 70.4767 9.95C71.98 9.95 73.1992 10.4633 74.1342 11.49C75.0875 12.4983 75.5642 14.0108 75.5642 16.0275V23.8375C75.5642 24.0208 75.5 24.1858 75.3717 24.3325C75.2433 24.4608 75.0783 24.525 74.8767 24.525H71.6867C71.485 24.525 71.3108 24.4608 71.1642 24.3325C71.0358 24.2042 70.9717 24.0392 70.9717 23.8375V16.22C70.9717 15.3033 70.7792 14.6433 70.3942 14.24C70.0275 13.8367 69.5233 13.635 68.8817 13.635C68.295 13.635 67.8092 13.8458 67.4242 14.2675C67.0392 14.6708 66.8467 15.3217 66.8467 16.22V23.8375C66.8467 24.0208 66.7825 24.1858 66.6542 24.3325C66.5258 24.4608 66.3608 24.525 66.1592 24.525H62.9692C62.7675 24.525 62.6025 24.4608 62.4742 24.3325C62.3458 24.2042 62.2817 24.0392 62.2817 23.8375V16.22C62.2817 15.3217 62.08 14.6708 61.6767 14.2675C61.2917 13.8458 60.7967 13.635 60.1917 13.635C59.605 13.635 59.11 13.8458 58.7067 14.2675C58.3217 14.6708 58.1292 15.3125 58.1292 16.1925V23.8375C58.1292 24.0208 58.065 24.1858 57.9367 24.3325C57.8083 24.4608 57.6433 24.525 57.4417 24.525H54.1692ZM79.0446 24.25C79.8513 24.6167 80.7404 24.8 81.7121 24.8C82.7021 24.8 83.5546 24.6258 84.2696 24.2775C85.0029 23.9108 85.5713 23.4433 85.9746 22.875V23.8375C85.9746 24.0208 86.0388 24.1858 86.1671 24.3325C86.3138 24.4608 86.4788 24.525 86.6621 24.525H89.8521C90.0538 24.525 90.2188 24.4608 90.3471 24.3325C90.4754 24.1858 90.5396 24.0208 90.5396 23.8375V15.4775C90.5396 13.7908 89.9988 12.4525 88.9171 11.4625C87.8354 10.4542 86.1671 9.95 83.9121 9.95C82.5004 9.95 81.3088 10.17 80.3371 10.61C79.3838 11.05 78.6688 11.5725 78.1921 12.1775C77.7338 12.7825 77.4954 13.3325 77.4771 13.8275C77.4588 13.9925 77.5046 14.1392 77.6146 14.2675C77.7429 14.3775 77.8988 14.4325 78.0821 14.4325H81.0796C81.2263 14.4325 81.3271 14.3592 81.3821 14.2125C81.5104 14.1392 81.7029 13.9925 81.9596 13.7725C82.2529 13.5158 82.5371 13.3142 82.8121 13.1675C83.0871 13.0208 83.4354 12.9475 83.8571 12.9475C84.5538 12.9475 85.0488 13.1125 85.3421 13.4425C85.6354 13.7725 85.7821 14.2858 85.7821 14.9825V15.3675L82.3446 15.89C80.5296 16.1833 79.0996 16.715 78.0546 17.485C77.0279 18.255 76.5146 19.2725 76.5146 20.5375C76.5146 21.3258 76.7346 22.05 77.1746 22.71C77.6329 23.3517 78.2563 23.865 79.0446 24.25ZM85.0396 20.84C84.5263 21.39 83.8479 21.665 83.0046 21.665C82.4546 21.665 81.9871 21.5367 81.6021 21.28C81.2171 21.005 81.0246 20.6383 81.0246 20.18C81.0246 19.3183 81.8496 18.7408 83.4996 18.4475L85.8371 18.035V18.42C85.8371 19.4833 85.5713 20.29 85.0396 20.84ZM18.6935 10.6567C19.1179 10.7539 19.5801 10.3166 19.7259 9.67998C19.8717 9.04335 19.691 8.33093 19.2665 8.23374C18.8421 8.13655 18.3347 8.6914 18.1889 9.32804C18.0432 9.96467 18.269 10.5595 18.6935 10.6567ZM20.0226 12.451C20.4422 12.5461 21.0146 12.1973 21.1571 11.5679C21.2997 10.9385 21.0751 10.3512 20.6554 10.2562C20.2358 10.1612 19.7801 10.5944 19.6376 11.2238C19.495 11.8532 19.603 12.356 20.0226 12.451ZM17.8371 9.38282C17.8602 10.0394 17.524 10.5842 17.0863 10.5996C16.6486 10.615 16.275 10.0952 16.2519 9.43861C16.2287 8.782 16.557 8.0412 16.9947 8.02579C17.4325 8.01039 17.8139 8.72621 17.8371 9.38282ZM15.6566 11.8235C16.0858 11.7672 16.2584 11.2221 16.178 10.6088C16.0976 9.99556 15.6846 9.544 15.2554 9.60026C14.8262 9.65651 14.5434 10.1993 14.6238 10.8126C14.7042 11.4258 15.2274 11.8798 15.6566 11.8235ZM19.5022 14.4524C19.0684 14.7681 18.7902 14.6628 18.3445 14.494C18.0827 14.3949 17.7631 14.2739 17.3203 14.2035C16.9513 14.1449 16.6419 14.1858 16.3786 14.2206C16.0052 14.27 15.7245 14.3071 15.4983 14.0306C15.1059 13.5511 15.5729 12.8249 16.0224 12.3109C16.1244 12.1943 16.2319 12.0446 16.3468 11.8846L16.3468 11.8846C16.7384 11.3393 17.217 10.6727 17.8649 10.7756C18.8486 10.9319 19.0259 11.6878 19.1397 12.1735C19.1665 12.2877 19.1898 12.387 19.2193 12.46C19.2483 12.5321 19.3008 12.6297 19.3623 12.7441L19.3623 12.7442C19.6278 13.2384 20.0613 14.0453 19.5022 14.4524Z" fill="#1B141F"/>
</g>
</svg>
