<svg width="20" height="21" viewBox="0 0 20 21" fill="none" xmlns="http://www.w3.org/2000/svg">
<g id="Iconos">
<mask id="mask0_123_784" style="mask-type:alpha" maskUnits="userSpaceOnUse" x="0" y="0" width="20" height="21">
<rect id="Bounding box" y="0.5" width="20" height="20" fill="#D9D9D9"/>
</mask>
<g mask="url(#mask0_123_784)">
<path id="search" d="M16.2846 17.6457L11.0506 12.4117C10.634 12.7558 10.1548 13.025 9.61315 13.2194C9.07148 13.4139 8.51112 13.5111 7.93206 13.5111C6.50776 13.5111 5.30233 13.0179 4.31577 12.0316C3.32922 11.0453 2.83594 9.84022 2.83594 8.41629C2.83594 6.99234 3.32909 5.78678 4.3154 4.7996C5.3017 3.81243 6.50683 3.31885 7.93077 3.31885C9.3547 3.31885 10.5603 3.81213 11.5474 4.79868C12.5346 5.78524 13.0282 6.99067 13.0282 8.41497C13.0282 9.01006 12.9283 9.57843 12.7285 10.1201C12.5287 10.6618 12.2622 11.1329 11.9288 11.5336L17.1628 16.7675L16.2846 17.6457ZM7.93206 12.2611C9.00579 12.2611 9.91524 11.8885 10.6604 11.1433C11.4056 10.3982 11.7782 9.4887 11.7782 8.41497C11.7782 7.34125 11.4056 6.43179 10.6604 5.6866C9.91524 4.9414 9.00579 4.56881 7.93206 4.56881C6.85834 4.56881 5.94888 4.9414 5.20369 5.6866C4.45851 6.43179 4.08592 7.34125 4.08592 8.41497C4.08592 9.4887 4.45851 10.3982 5.20369 11.1433C5.94888 11.8885 6.85834 12.2611 7.93206 12.2611Z" fill="#808B9B"/>
</g>
</g>
</svg>
